<?xml version="1.0" encoding="UTF-8"?>
<svg xmlns="http://www.w3.org/2000/svg" version="1.1" width="350" height="350" viewBox="0 0 350 350"><rect x="0" y="0" width="350" height="350" fill="#ffffff"/><g transform="scale(16.667)"><g transform="translate(0,0)"><path fill-rule="evenodd" d="M8 0L8 1L9 1L9 3L10 3L10 5L12 5L12 7L11 7L11 6L10 6L10 7L9 7L9 6L8 6L8 8L9 8L9 11L8 11L8 9L7 9L7 8L6 8L6 9L7 9L7 10L6 10L6 11L8 11L8 12L5 12L5 11L4 11L4 10L5 10L5 8L3 8L3 10L2 10L2 8L0 8L0 10L1 10L1 11L0 11L0 12L1 12L1 11L3 11L3 12L2 12L2 13L8 13L8 14L10 14L10 12L12 12L12 11L13 11L13 14L12 14L12 15L9 15L9 16L8 16L8 18L9 18L9 19L8 19L8 21L10 21L10 20L11 20L11 21L12 21L12 19L13 19L13 18L15 18L15 17L16 17L16 16L17 16L17 17L18 17L18 16L19 16L19 15L18 15L18 14L19 14L19 13L17 13L17 12L16 12L16 11L15 11L15 8L14 8L14 9L13 9L13 8L12 8L12 7L13 7L13 5L12 5L12 2L13 2L13 1L12 1L12 0L11 0L11 2L10 2L10 1L9 1L9 0ZM11 8L11 9L10 9L10 10L11 10L11 11L12 11L12 10L13 10L13 9L12 9L12 8ZM20 8L20 9L17 9L17 10L19 10L19 11L18 11L18 12L20 12L20 13L21 13L21 10L20 10L20 9L21 9L21 8ZM9 11L9 12L8 12L8 13L9 13L9 12L10 12L10 11ZM14 11L14 13L15 13L15 15L16 15L16 13L15 13L15 11ZM12 15L12 18L11 18L11 17L10 17L10 16L9 16L9 17L10 17L10 18L11 18L11 19L12 19L12 18L13 18L13 17L15 17L15 16L13 16L13 15ZM17 15L17 16L18 16L18 15ZM20 15L20 17L19 17L19 19L18 19L18 18L16 18L16 21L17 21L17 20L21 20L21 18L20 18L20 17L21 17L21 15ZM14 19L14 20L13 20L13 21L15 21L15 19ZM0 0L0 7L7 7L7 0ZM1 1L1 6L6 6L6 1ZM2 2L2 5L5 5L5 2ZM14 0L14 7L21 7L21 0ZM15 1L15 6L20 6L20 1ZM16 2L16 5L19 5L19 2ZM0 14L0 21L7 21L7 14ZM1 15L1 20L6 20L6 15ZM2 16L2 19L5 19L5 16Z" fill="#000000"/></g></g></svg>
